<?xml version="1.0" encoding="UTF-8" standalone="no"?>
<!DOCTYPE svg PUBLIC "-//W3C//DTD SVG 1.1//EN" "http://www.w3.org/Graphics/SVG/1.1/DTD/svg11.dtd">
<!-- Generated by graphviz version 2.40.1 (20161225.0304)
 -->
<!-- Title: dependency&#45;cruiser output Pages: 1 -->
<svg width="524pt" height="816pt" viewBox="0.00 0.00 523.55 815.71" xmlns="http://www.w3.org/2000/svg" xmlns:xlink="http://www.w3.org/1999/xlink">
<g id="graph0" class="graph" transform="scale(1 1) rotate(0) translate(4 811.7142)">
<title>dependency-cruiser output</title>
<polygon fill="#ffffff" stroke="transparent" points="-4,4 -4,-811.7142 519.5455,-811.7142 519.5455,4 -4,4"/>
<g id="clust1" class="cluster">
<title>cluster_node_modules</title>
<path fill="#ffffff" stroke="#000000" stroke-width="2" d="M415.5402,-99.7142C415.5402,-99.7142 492.0455,-99.7142 492.0455,-99.7142 498.0455,-99.7142 504.0455,-105.7142 504.0455,-111.7142 504.0455,-111.7142 504.0455,-357.7142 504.0455,-357.7142 504.0455,-363.7142 498.0455,-369.7142 492.0455,-369.7142 492.0455,-369.7142 415.5402,-369.7142 415.5402,-369.7142 409.5402,-369.7142 403.5402,-363.7142 403.5402,-357.7142 403.5402,-357.7142 403.5402,-111.7142 403.5402,-111.7142 403.5402,-105.7142 409.5402,-99.7142 415.5402,-99.7142"/>
<text text-anchor="middle" x="453.7928" y="-357.6142" font-family="Helvetica,sans-Serif" font-weight="bold" font-size="9.00" fill="#000000">node_modules</text>
</g>
<g id="clust2" class="cluster">
<title>cluster_src</title>
<path fill="#ffffff" stroke="#000000" stroke-width="2" d="M20,-403.7142C20,-403.7142 495.5455,-403.7142 495.5455,-403.7142 501.5455,-403.7142 507.5455,-409.7142 507.5455,-415.7142 507.5455,-415.7142 507.5455,-787.7142 507.5455,-787.7142 507.5455,-793.7142 501.5455,-799.7142 495.5455,-799.7142 495.5455,-799.7142 20,-799.7142 20,-799.7142 14,-799.7142 8,-793.7142 8,-787.7142 8,-787.7142 8,-415.7142 8,-415.7142 8,-409.7142 14,-403.7142 20,-403.7142"/>
<text text-anchor="middle" x="257.7727" y="-787.6142" font-family="Helvetica,sans-Serif" font-weight="bold" font-size="9.00" fill="#000000">src</text>
</g>
<g id="clust3" class="cluster">
<title>cluster_src/components</title>
<path fill="#ffffff" stroke="#000000" stroke-width="2" d="M430.0369,-565.7142C430.0369,-565.7142 477.5487,-565.7142 477.5487,-565.7142 483.5487,-565.7142 489.5487,-571.7142 489.5487,-577.7142 489.5487,-577.7142 489.5487,-699.7142 489.5487,-699.7142 489.5487,-705.7142 483.5487,-711.7142 477.5487,-711.7142 477.5487,-711.7142 430.0369,-711.7142 430.0369,-711.7142 424.0369,-711.7142 418.0369,-705.7142 418.0369,-699.7142 418.0369,-699.7142 418.0369,-577.7142 418.0369,-577.7142 418.0369,-571.7142 424.0369,-565.7142 430.0369,-565.7142"/>
<text text-anchor="middle" x="453.7928" y="-699.6142" font-family="Helvetica,sans-Serif" font-weight="bold" font-size="9.00" fill="#000000">components</text>
</g>
<g id="clust4" class="cluster">
<title>cluster_src/controllers</title>
<path fill="#ffffff" stroke="#000000" stroke-width="2" d="M198.0193,-462.7142C198.0193,-462.7142 284.5281,-462.7142 284.5281,-462.7142 290.5281,-462.7142 296.5281,-468.7142 296.5281,-474.7142 296.5281,-474.7142 296.5281,-596.7142 296.5281,-596.7142 296.5281,-602.7142 290.5281,-608.7142 284.5281,-608.7142 284.5281,-608.7142 198.0193,-608.7142 198.0193,-608.7142 192.0193,-608.7142 186.0193,-602.7142 186.0193,-596.7142 186.0193,-596.7142 186.0193,-474.7142 186.0193,-474.7142 186.0193,-468.7142 192.0193,-462.7142 198.0193,-462.7142"/>
<text text-anchor="middle" x="241.2737" y="-596.6142" font-family="Helvetica,sans-Serif" font-weight="bold" font-size="9.00" fill="#000000">controllers</text>
</g>
<g id="clust5" class="cluster">
<title>cluster_src/dao</title>
<path fill="#ffffff" stroke="#000000" stroke-width="2" d="M316.5281,-483.7142C316.5281,-483.7142 383.5402,-483.7142 383.5402,-483.7142 389.5402,-483.7142 395.5402,-489.7142 395.5402,-495.7142 395.5402,-495.7142 395.5402,-617.7142 395.5402,-617.7142 395.5402,-623.7142 389.5402,-629.7142 383.5402,-629.7142 383.5402,-629.7142 316.5281,-629.7142 316.5281,-629.7142 310.5281,-629.7142 304.5281,-623.7142 304.5281,-617.7142 304.5281,-617.7142 304.5281,-495.7142 304.5281,-495.7142 304.5281,-489.7142 310.5281,-483.7142 316.5281,-483.7142"/>
<text text-anchor="middle" x="350.0341" y="-617.6142" font-family="Helvetica,sans-Serif" font-weight="bold" font-size="9.00" fill="#000000">dao</text>
</g>
<g id="clust7" class="cluster">
<title>cluster_src/errors</title>
<path fill="#ffffff" stroke="#000000" stroke-width="2" d="M420.0402,-411.7142C420.0402,-411.7142 487.5455,-411.7142 487.5455,-411.7142 493.5455,-411.7142 499.5455,-417.7142 499.5455,-423.7142 499.5455,-423.7142 499.5455,-545.7142 499.5455,-545.7142 499.5455,-551.7142 493.5455,-557.7142 487.5455,-557.7142 487.5455,-557.7142 420.0402,-557.7142 420.0402,-557.7142 414.0402,-557.7142 408.0402,-551.7142 408.0402,-545.7142 408.0402,-545.7142 408.0402,-423.7142 408.0402,-423.7142 408.0402,-417.7142 414.0402,-411.7142 420.0402,-411.7142"/>
<text text-anchor="middle" x="453.7928" y="-545.6142" font-family="Helvetica,sans-Serif" font-weight="bold" font-size="9.00" fill="#000000">errors</text>
</g>
<g id="clust6" class="cluster">
<title>cluster_src/db</title>
<path fill="#ffffff" stroke="#000000" stroke-width="2" d="M325.5268,-719.7142C325.5268,-719.7142 476.7928,-719.7142 476.7928,-719.7142 482.7928,-719.7142 488.7928,-725.7142 488.7928,-731.7142 488.7928,-731.7142 488.7928,-760.7142 488.7928,-760.7142 488.7928,-766.7142 482.7928,-772.7142 476.7928,-772.7142 476.7928,-772.7142 325.5268,-772.7142 325.5268,-772.7142 319.5268,-772.7142 313.5268,-766.7142 313.5268,-760.7142 313.5268,-760.7142 313.5268,-731.7142 313.5268,-731.7142 313.5268,-725.7142 319.5268,-719.7142 325.5268,-719.7142"/>
<text text-anchor="middle" x="401.1598" y="-760.6142" font-family="Helvetica,sans-Serif" font-weight="bold" font-size="9.00" fill="#000000">db</text>
</g>
<g id="clust8" class="cluster">
<title>cluster_src/routers</title>
<path fill="#ffffff" stroke="#000000" stroke-width="2" d="M90,-411.7142C90,-411.7142 166.0193,-411.7142 166.0193,-411.7142 172.0193,-411.7142 178.0193,-417.7142 178.0193,-423.7142 178.0193,-423.7142 178.0193,-576.7142 178.0193,-576.7142 178.0193,-582.7142 172.0193,-588.7142 166.0193,-588.7142 166.0193,-588.7142 90,-588.7142 90,-588.7142 84,-588.7142 78,-582.7142 78,-576.7142 78,-576.7142 78,-423.7142 78,-423.7142 78,-417.7142 84,-411.7142 90,-411.7142"/>
<text text-anchor="middle" x="128.0096" y="-576.6142" font-family="Helvetica,sans-Serif" font-weight="bold" font-size="9.00" fill="#000000">routers</text>
</g>
<!-- crypto -->
<g id="node1" class="node">
<title>crypto</title>
<g id="a_node1"><a xlink:href="https://nodejs.org/api/crypto.html" xlink:title="crypto">
<path fill="#ffffcc" stroke="#c0c0c0" d="M474.5921,-396.0153C474.5921,-396.0153 432.9936,-396.0153 432.9936,-396.0153 429.8932,-396.0153 426.7928,-392.9149 426.7928,-389.8146 426.7928,-389.8146 426.7928,-383.6139 426.7928,-383.6139 426.7928,-380.5135 429.8932,-377.4132 432.9936,-377.4132 432.9936,-377.4132 474.5921,-377.4132 474.5921,-377.4132 477.6925,-377.4132 480.7928,-380.5135 480.7928,-383.6139 480.7928,-383.6139 480.7928,-389.8146 480.7928,-389.8146 480.7928,-392.9149 477.6925,-396.0153 474.5921,-396.0153"/>
<text text-anchor="middle" x="453.7928" y="-384.0142" font-family="Helvetica,sans-Serif" font-size="9.00" fill="#c0c0c0">crypto</text>
</a>
</g>
</g>
<!-- node_modules/dayjs -->
<g id="node2" class="node">
<title>node_modules/dayjs</title>
<g id="a_node2"><a xlink:href="https://www.npmjs.com/package/dayjs" xlink:title="dayjs">
<polygon fill="#c40b0a" fill-opacity="0.101961" stroke="#000000" points="480.7928,-312.0153 428.8598,-312.0153 426.7928,-309.9484 426.7928,-293.4132 478.7259,-293.4132 480.7928,-295.4801 480.7928,-312.0153"/>
<polyline fill="none" stroke="#000000" points="478.7259,-309.9484 426.7928,-309.9484 "/>
<polyline fill="none" stroke="#000000" points="478.7259,-309.9484 478.7259,-293.4132 "/>
<polyline fill="none" stroke="#000000" points="478.7259,-309.9484 480.7928,-312.0153 "/>
<text text-anchor="start" x="443.2912" y="-300.0142" font-family="Helvetica,sans-Serif" font-size="9.00" fill="#c40b0a">dayjs</text>
</a>
</g>
</g>
<!-- node_modules/express -->
<g id="node3" class="node">
<title>node_modules/express</title>
<g id="a_node3"><a xlink:href="https://www.npmjs.com/package/express" xlink:title="express">
<polygon fill="#c40b0a" fill-opacity="0.101961" stroke="#000000" points="480.7928,-250.0153 428.8598,-250.0153 426.7928,-247.9484 426.7928,-231.4132 478.7259,-231.4132 480.7928,-233.4801 480.7928,-250.0153"/>
<polyline fill="none" stroke="#000000" points="478.7259,-247.9484 426.7928,-247.9484 "/>
<polyline fill="none" stroke="#000000" points="478.7259,-247.9484 478.7259,-231.4132 "/>
<polyline fill="none" stroke="#000000" points="478.7259,-247.9484 480.7928,-250.0153 "/>
<text text-anchor="start" x="438.0401" y="-238.0142" font-family="Helvetica,sans-Serif" font-size="9.00" fill="#c40b0a">express</text>
</a>
</g>
</g>
<!-- node_modules/express&#45;session -->
<g id="node4" class="node">
<title>node_modules/express-session</title>
<g id="a_node4"><a xlink:href="https://www.npmjs.com/package/express-session" xlink:title="express-session">
<polygon fill="#c40b0a" fill-opacity="0.101961" stroke="#000000" points="494.3008,-188.0153 415.3519,-188.0153 413.2849,-185.9484 413.2849,-169.4132 492.2338,-169.4132 494.3008,-171.4801 494.3008,-188.0153"/>
<polyline fill="none" stroke="#000000" points="492.2338,-185.9484 413.2849,-185.9484 "/>
<polyline fill="none" stroke="#000000" points="492.2338,-185.9484 492.2338,-169.4132 "/>
<polyline fill="none" stroke="#000000" points="492.2338,-185.9484 494.3008,-188.0153 "/>
<text text-anchor="start" x="421.2889" y="-176.0142" font-family="Helvetica,sans-Serif" font-size="9.00" fill="#c40b0a">express-session</text>
</a>
</g>
</g>
<!-- node_modules/express&#45;validator -->
<g id="node5" class="node">
<title>node_modules/express-validator</title>
<g id="a_node5"><a xlink:href="https://www.npmjs.com/package/express-validator" xlink:title="express-validator">
<polygon fill="#c40b0a" fill-opacity="0.101961" stroke="#000000" points="495.7996,-281.0153 413.853,-281.0153 411.7861,-278.9484 411.7861,-262.4132 493.7327,-262.4132 495.7996,-264.4801 495.7996,-281.0153"/>
<polyline fill="none" stroke="#000000" points="493.7327,-278.9484 411.7861,-278.9484 "/>
<polyline fill="none" stroke="#000000" points="493.7327,-278.9484 493.7327,-262.4132 "/>
<polyline fill="none" stroke="#000000" points="493.7327,-278.9484 495.7996,-281.0153 "/>
<text text-anchor="start" x="419.5402" y="-269.0142" font-family="Helvetica,sans-Serif" font-size="9.00" fill="#c40b0a">express-validator</text>
</a>
</g>
</g>
<!-- node_modules/morgan -->
<g id="node6" class="node">
<title>node_modules/morgan</title>
<g id="a_node6"><a xlink:href="https://www.npmjs.com/package/morgan" xlink:title="morgan">
<polygon fill="#c40b0a" fill-opacity="0.101961" stroke="#000000" points="480.7928,-126.0153 428.8598,-126.0153 426.7928,-123.9484 426.7928,-107.4132 478.7259,-107.4132 480.7928,-109.4801 480.7928,-126.0153"/>
<polyline fill="none" stroke="#000000" points="478.7259,-123.9484 426.7928,-123.9484 "/>
<polyline fill="none" stroke="#000000" points="478.7259,-123.9484 478.7259,-107.4132 "/>
<polyline fill="none" stroke="#000000" points="478.7259,-123.9484 480.7928,-126.0153 "/>
<text text-anchor="start" x="438.5405" y="-114.0142" font-family="Helvetica,sans-Serif" font-size="9.00" fill="#c40b0a">morgan</text>
</a>
</g>
</g>
<!-- node_modules/passport -->
<g id="node7" class="node">
<title>node_modules/passport</title>
<g id="a_node7"><a xlink:href="https://www.npmjs.com/package/passport" xlink:title="passport">
<polygon fill="#c40b0a" fill-opacity="0.101961" stroke="#000000" points="480.7928,-157.0153 428.8598,-157.0153 426.7928,-154.9484 426.7928,-138.4132 478.7259,-138.4132 480.7928,-140.4801 480.7928,-157.0153"/>
<polyline fill="none" stroke="#000000" points="478.7259,-154.9484 426.7928,-154.9484 "/>
<polyline fill="none" stroke="#000000" points="478.7259,-154.9484 478.7259,-138.4132 "/>
<polyline fill="none" stroke="#000000" points="478.7259,-154.9484 480.7928,-157.0153 "/>
<text text-anchor="start" x="436.538" y="-145.0142" font-family="Helvetica,sans-Serif" font-size="9.00" fill="#c40b0a">passport</text>
</a>
</g>
</g>
<!-- node_modules/passport&#45;local -->
<g id="node8" class="node">
<title>node_modules/passport-local</title>
<g id="a_node8"><a xlink:href="https://www.npmjs.com/package/passport-local" xlink:title="passport-local">
<polygon fill="#c40b0a" fill-opacity="0.101961" stroke="#000000" points="489.799,-219.0153 419.8537,-219.0153 417.7867,-216.9484 417.7867,-200.4132 487.732,-200.4132 489.799,-202.4801 489.799,-219.0153"/>
<polyline fill="none" stroke="#000000" points="487.732,-216.9484 417.7867,-216.9484 "/>
<polyline fill="none" stroke="#000000" points="487.732,-216.9484 487.732,-200.4132 "/>
<polyline fill="none" stroke="#000000" points="487.732,-216.9484 489.799,-219.0153 "/>
<text text-anchor="start" x="425.7898" y="-207.0142" font-family="Helvetica,sans-Serif" font-size="9.00" fill="#c40b0a">passport-local</text>
</a>
</g>
</g>
<!-- node_modules/sqlite3 -->
<g id="node9" class="node">
<title>node_modules/sqlite3</title>
<g id="a_node9"><a xlink:href="https://www.npmjs.com/package/sqlite3" xlink:title="sqlite3">
<polygon fill="#c40b0a" fill-opacity="0.101961" stroke="#000000" points="480.7928,-343.0153 428.8598,-343.0153 426.7928,-340.9484 426.7928,-324.4132 478.7259,-324.4132 480.7928,-326.4801 480.7928,-343.0153"/>
<polyline fill="none" stroke="#000000" points="478.7259,-340.9484 426.7928,-340.9484 "/>
<polyline fill="none" stroke="#000000" points="478.7259,-340.9484 478.7259,-324.4132 "/>
<polyline fill="none" stroke="#000000" points="478.7259,-340.9484 480.7928,-343.0153 "/>
<text text-anchor="start" x="440.7905" y="-331.0142" font-family="Helvetica,sans-Serif" font-size="9.00" fill="#c40b0a">sqlite3</text>
</a>
</g>
</g>
<!-- src/components/cart.ts -->
<g id="node10" class="node">
<title>src/components/cart.ts</title>
<g id="a_node10"><a xlink:href="src/components/cart.ts" xlink:title="cart.ts">
<path fill="#ddfeff" stroke="#000000" d="M474.5921,-592.0153C474.5921,-592.0153 432.9936,-592.0153 432.9936,-592.0153 429.8932,-592.0153 426.7928,-588.9149 426.7928,-585.8146 426.7928,-585.8146 426.7928,-579.6139 426.7928,-579.6139 426.7928,-576.5135 429.8932,-573.4132 432.9936,-573.4132 432.9936,-573.4132 474.5921,-573.4132 474.5921,-573.4132 477.6925,-573.4132 480.7928,-576.5135 480.7928,-579.6139 480.7928,-579.6139 480.7928,-585.8146 480.7928,-585.8146 480.7928,-588.9149 477.6925,-592.0153 474.5921,-592.0153"/>
<text text-anchor="start" x="441.5416" y="-580.0142" font-family="Helvetica,sans-Serif" font-size="9.00" fill="#000000">cart.ts</text>
</a>
</g>
</g>
<!-- src/components/product.ts -->
<g id="node11" class="node">
<title>src/components/product.ts</title>
<g id="a_node11"><a xlink:href="src/components/product.ts" xlink:title="product.ts">
<path fill="#ddfeff" stroke="#000000" d="M475.1061,-685.0153C475.1061,-685.0153 432.4796,-685.0153 432.4796,-685.0153 429.3793,-685.0153 426.2789,-681.9149 426.2789,-678.8146 426.2789,-678.8146 426.2789,-672.6139 426.2789,-672.6139 426.2789,-669.5135 429.3793,-666.4132 432.4796,-666.4132 432.4796,-666.4132 475.1061,-666.4132 475.1061,-666.4132 478.2064,-666.4132 481.3068,-669.5135 481.3068,-672.6139 481.3068,-672.6139 481.3068,-678.8146 481.3068,-678.8146 481.3068,-681.9149 478.2064,-685.0153 475.1061,-685.0153"/>
<text text-anchor="start" x="434.0369" y="-673.0142" font-family="Helvetica,sans-Serif" font-size="9.00" fill="#000000">product.ts</text>
</a>
</g>
</g>
<!-- src/components/review.ts -->
<g id="node12" class="node">
<title>src/components/review.ts</title>
<g id="a_node12"><a xlink:href="src/components/review.ts" xlink:title="review.ts">
<path fill="#ddfeff" stroke="#000000" d="M474.5921,-623.0153C474.5921,-623.0153 432.9936,-623.0153 432.9936,-623.0153 429.8932,-623.0153 426.7928,-619.9149 426.7928,-616.8146 426.7928,-616.8146 426.7928,-610.6139 426.7928,-610.6139 426.7928,-607.5135 429.8932,-604.4132 432.9936,-604.4132 432.9936,-604.4132 474.5921,-604.4132 474.5921,-604.4132 477.6925,-604.4132 480.7928,-607.5135 480.7928,-610.6139 480.7928,-610.6139 480.7928,-616.8146 480.7928,-616.8146 480.7928,-619.9149 477.6925,-623.0153 474.5921,-623.0153"/>
<text text-anchor="start" x="436.0435" y="-611.0142" font-family="Helvetica,sans-Serif" font-size="9.00" fill="#000000">review.ts</text>
</a>
</g>
</g>
<!-- src/components/user.ts -->
<g id="node13" class="node">
<title>src/components/user.ts</title>
<g id="a_node13"><a xlink:href="src/components/user.ts" xlink:title="user.ts">
<path fill="#ddfeff" stroke="#000000" d="M474.5921,-654.0153C474.5921,-654.0153 432.9936,-654.0153 432.9936,-654.0153 429.8932,-654.0153 426.7928,-650.9149 426.7928,-647.8146 426.7928,-647.8146 426.7928,-641.6139 426.7928,-641.6139 426.7928,-638.5135 429.8932,-635.4132 432.9936,-635.4132 432.9936,-635.4132 474.5921,-635.4132 474.5921,-635.4132 477.6925,-635.4132 480.7928,-638.5135 480.7928,-641.6139 480.7928,-641.6139 480.7928,-647.8146 480.7928,-647.8146 480.7928,-650.9149 477.6925,-654.0153 474.5921,-654.0153"/>
<text text-anchor="start" x="440.2906" y="-642.0142" font-family="Helvetica,sans-Serif" font-size="9.00" fill="#000000">user.ts</text>
</a>
</g>
</g>
<!-- src/controllers/cartController.ts -->
<g id="node14" class="node">
<title>src/controllers/cartController.ts</title>
<g id="a_node14"><a xlink:href="src/controllers/cartController.ts" xlink:title="cartController.ts">
<path fill="#ddfeff" stroke="#000000" d="M275.0741,-520.0153C275.0741,-520.0153 207.4733,-520.0153 207.4733,-520.0153 204.373,-520.0153 201.2726,-516.9149 201.2726,-513.8146 201.2726,-513.8146 201.2726,-507.6139 201.2726,-507.6139 201.2726,-504.5135 204.373,-501.4132 207.4733,-501.4132 207.4733,-501.4132 275.0741,-501.4132 275.0741,-501.4132 278.1744,-501.4132 281.2748,-504.5135 281.2748,-507.6139 281.2748,-507.6139 281.2748,-513.8146 281.2748,-513.8146 281.2748,-516.9149 278.1744,-520.0153 275.0741,-520.0153"/>
<text text-anchor="start" x="209.5239" y="-508.0142" font-family="Helvetica,sans-Serif" font-size="9.00" fill="#000000">cartController.ts</text>
</a>
</g>
</g>
<!-- src/dao/cartDAO.ts -->
<g id="node15" class="node">
<title>src/dao/cartDAO.ts</title>
<g id="a_node15"><a xlink:href="src/dao/cartDAO.ts" xlink:title="cartDAO.ts">
<path fill="#ddfeff" stroke="#000000" d="M373.8362,-510.0153C373.8362,-510.0153 326.2321,-510.0153 326.2321,-510.0153 323.1317,-510.0153 320.0313,-506.9149 320.0313,-503.8146 320.0313,-503.8146 320.0313,-497.6139 320.0313,-497.6139 320.0313,-494.5135 323.1317,-491.4132 326.2321,-491.4132 326.2321,-491.4132 373.8362,-491.4132 373.8362,-491.4132 376.9366,-491.4132 380.037,-494.5135 380.037,-497.6139 380.037,-497.6139 380.037,-503.8146 380.037,-503.8146 380.037,-506.9149 376.9366,-510.0153 373.8362,-510.0153"/>
<text text-anchor="start" x="328.0327" y="-498.0142" font-family="Helvetica,sans-Serif" font-size="9.00" fill="#000000">cartDAO.ts</text>
</a>
</g>
</g>
<!-- src/controllers/cartController.ts&#45;&gt;src/dao/cartDAO.ts -->
<g id="edge1" class="edge">
<title>src/controllers/cartController.ts-&gt;src/dao/cartDAO.ts</title>
<path fill="none" stroke="#000000" stroke-width="2" stroke-opacity="0.200000" d="M281.1545,-507.0474C291.7971,-506.0688 303.239,-505.0168 313.681,-504.0567"/>
<polygon fill="#000000" fill-opacity="0.200000" stroke="#000000" stroke-width="2" stroke-opacity="0.200000" points="313.9174,-506.1439 319.6999,-503.5033 313.5328,-501.9616 313.9174,-506.1439"/>
</g>
<!-- src/dao/cartDAO.ts&#45;&gt;node_modules/dayjs -->
<g id="edge19" class="edge">
<title>src/dao/cartDAO.ts-&gt;node_modules/dayjs</title>
<path fill="none" stroke="#000000" stroke-opacity="0.200000" d="M359.3521,-491.289C370.2375,-479.6024 387.7478,-458.5419 395.5402,-436.7142 404.3767,-411.9618 387.3198,-339.3943 403.5402,-318.7142 407.8232,-313.2536 413.9754,-309.6239 420.5143,-307.2197"/>
<polygon fill="#000000" fill-opacity="0.200000" stroke="#000000" stroke-opacity="0.200000" points="421.4759,-309.1203 426.5857,-305.3388 420.233,-305.1084 421.4759,-309.1203"/>
</g>
<!-- src/dao/cartDAO.ts&#45;&gt;src/components/cart.ts -->
<g id="edge15" class="edge">
<title>src/dao/cartDAO.ts-&gt;src/components/cart.ts</title>
<path fill="none" stroke="#000000" stroke-width="2" stroke-opacity="0.200000" d="M380.2329,-506.3275C386.0191,-508.6736 391.5183,-511.9995 395.5402,-516.7142 408.4399,-531.8357 391.213,-545.1225 403.5402,-560.7142 408.0625,-566.4341 414.3746,-570.7005 421.0015,-573.8711"/>
<polygon fill="#000000" fill-opacity="0.200000" stroke="#000000" stroke-width="2" stroke-opacity="0.200000" points="420.2683,-575.8417 426.6097,-576.2846 421.9285,-571.9838 420.2683,-575.8417"/>
</g>
<!-- src/errors/productError.ts -->
<g id="node18" class="node">
<title>src/errors/productError.ts</title>
<g id="a_node18"><a xlink:href="src/errors/productError.ts" xlink:title="productError.ts">
<path fill="#ddfeff" stroke="#000000" d="M485.0991,-500.0153C485.0991,-500.0153 422.4866,-500.0153 422.4866,-500.0153 419.3863,-500.0153 416.2859,-496.9149 416.2859,-493.8146 416.2859,-493.8146 416.2859,-487.6139 416.2859,-487.6139 416.2859,-484.5135 419.3863,-481.4132 422.4866,-481.4132 422.4866,-481.4132 485.0991,-481.4132 485.0991,-481.4132 488.1994,-481.4132 491.2998,-484.5135 491.2998,-487.6139 491.2998,-487.6139 491.2998,-493.8146 491.2998,-493.8146 491.2998,-496.9149 488.1994,-500.0153 485.0991,-500.0153"/>
<text text-anchor="start" x="424.0402" y="-488.0142" font-family="Helvetica,sans-Serif" font-size="9.00" fill="#000000">productError.ts</text>
</a>
</g>
</g>
<!-- src/dao/cartDAO.ts&#45;&gt;src/errors/productError.ts -->
<g id="edge18" class="edge">
<title>src/dao/cartDAO.ts-&gt;src/errors/productError.ts</title>
<path fill="none" stroke="#000000" stroke-width="2" stroke-opacity="0.200000" d="M380.0455,-497.8218C389.3636,-496.9237 399.8337,-495.9147 409.8937,-494.9451"/>
<polygon fill="#000000" fill-opacity="0.200000" stroke="#000000" stroke-width="2" stroke-opacity="0.200000" points="410.3197,-497.0139 416.0905,-494.3479 409.9167,-492.8332 410.3197,-497.0139"/>
</g>
<!-- src/db/db.ts -->
<g id="node26" class="node">
<title>src/db/db.ts</title>
<g id="a_node26"><a xlink:href="src/db/db.ts" xlink:title="db.ts">
<path fill="#ddfeff" stroke="#000000" d="M474.5921,-746.0153C474.5921,-746.0153 432.9936,-746.0153 432.9936,-746.0153 429.8932,-746.0153 426.7928,-742.9149 426.7928,-739.8146 426.7928,-739.8146 426.7928,-733.6139 426.7928,-733.6139 426.7928,-730.5135 429.8932,-727.4132 432.9936,-727.4132 432.9936,-727.4132 474.5921,-727.4132 474.5921,-727.4132 477.6925,-727.4132 480.7928,-730.5135 480.7928,-733.6139 480.7928,-733.6139 480.7928,-739.8146 480.7928,-739.8146 480.7928,-742.9149 477.6925,-746.0153 474.5921,-746.0153"/>
<text text-anchor="start" x="444.0386" y="-734.0142" font-family="Helvetica,sans-Serif" font-size="9.00" fill="#000000">db.ts</text>
</a>
</g>
</g>
<!-- src/dao/cartDAO.ts&#45;&gt;src/db/db.ts -->
<g id="edge16" class="edge">
<title>src/dao/cartDAO.ts-&gt;src/db/db.ts</title>
<path fill="none" stroke="#000000" stroke-width="2" stroke-opacity="0.200000" d="M380.2784,-505.73C386.2094,-508.1067 391.757,-511.5961 395.5402,-516.7142 408.628,-534.4201 391.1213,-696.5329 403.5402,-714.7142 407.7369,-720.8582 414.0523,-725.3011 420.8024,-728.509"/>
<polygon fill="#000000" fill-opacity="0.200000" stroke="#000000" stroke-width="2" stroke-opacity="0.200000" points="420.1929,-730.5309 426.5377,-730.9234 421.8225,-726.6599 420.1929,-730.5309"/>
</g>
<!-- src/errors/cartError.ts -->
<g id="node27" class="node">
<title>src/errors/cartError.ts</title>
<g id="a_node27"><a xlink:href="src/errors/cartError.ts" xlink:title="cartError.ts">
<path fill="#ddfeff" stroke="#000000" d="M478.0902,-531.0153C478.0902,-531.0153 429.4955,-531.0153 429.4955,-531.0153 426.3952,-531.0153 423.2948,-527.9149 423.2948,-524.8146 423.2948,-524.8146 423.2948,-518.6139 423.2948,-518.6139 423.2948,-515.5135 426.3952,-512.4132 429.4955,-512.4132 429.4955,-512.4132 478.0902,-512.4132 478.0902,-512.4132 481.1905,-512.4132 484.2909,-515.5135 484.2909,-518.6139 484.2909,-518.6139 484.2909,-524.8146 484.2909,-524.8146 484.2909,-527.9149 481.1905,-531.0153 478.0902,-531.0153"/>
<text text-anchor="start" x="431.5448" y="-519.0142" font-family="Helvetica,sans-Serif" font-size="9.00" fill="#000000">cartError.ts</text>
</a>
</g>
</g>
<!-- src/dao/cartDAO.ts&#45;&gt;src/errors/cartError.ts -->
<g id="edge17" class="edge">
<title>src/dao/cartDAO.ts-&gt;src/errors/cartError.ts</title>
<path fill="none" stroke="#000000" stroke-width="2" stroke-opacity="0.200000" d="M380.0455,-506.7883C391.7726,-509.1618 405.3244,-511.9046 417.587,-514.3864"/>
<polygon fill="#000000" fill-opacity="0.200000" stroke="#000000" stroke-width="2" stroke-opacity="0.200000" points="417.1922,-516.449 423.4895,-515.581 418.0254,-512.3325 417.1922,-516.449"/>
</g>
<!-- src/controllers/productController.ts -->
<g id="node16" class="node">
<title>src/controllers/productController.ts</title>
<g id="a_node16"><a xlink:href="src/controllers/productController.ts" xlink:title="productController.ts">
<path fill="#ddfeff" stroke="#000000" d="M282.0831,-582.0153C282.0831,-582.0153 200.4643,-582.0153 200.4643,-582.0153 197.364,-582.0153 194.2636,-578.9149 194.2636,-575.8146 194.2636,-575.8146 194.2636,-569.6139 194.2636,-569.6139 194.2636,-566.5135 197.364,-563.4132 200.4643,-563.4132 200.4643,-563.4132 282.0831,-563.4132 282.0831,-563.4132 285.1834,-563.4132 288.2838,-566.5135 288.2838,-569.6139 288.2838,-569.6139 288.2838,-575.8146 288.2838,-575.8146 288.2838,-578.9149 285.1834,-582.0153 282.0831,-582.0153"/>
<text text-anchor="start" x="202.0193" y="-570.0142" font-family="Helvetica,sans-Serif" font-size="9.00" fill="#000000">productController.ts</text>
</a>
</g>
</g>
<!-- src/controllers/productController.ts&#45;&gt;node_modules/dayjs -->
<g id="edge6" class="edge">
<title>src/controllers/productController.ts-&gt;node_modules/dayjs</title>
<path fill="none" stroke="#000000" stroke-opacity="0.200000" d="M288.485,-563.7163C291.5005,-561.7952 294.2387,-559.4863 296.5281,-556.7142 308.8911,-541.7445 294.4852,-486.3298 304.5281,-469.7142 329.4639,-428.4589 370.7067,-452.0312 395.5402,-410.7142 406.112,-393.1252 390.722,-334.7401 403.5402,-318.7142 407.875,-313.2946 414.0483,-309.6817 420.5913,-307.2807"/>
<polygon fill="#000000" fill-opacity="0.200000" stroke="#000000" stroke-opacity="0.200000" points="421.5526,-309.1814 426.6621,-305.3993 420.3093,-305.1696 421.5526,-309.1814"/>
</g>
<!-- src/controllers/productController.ts&#45;&gt;src/components/product.ts -->
<g id="edge2" class="edge">
<title>src/controllers/productController.ts-&gt;src/components/product.ts</title>
<path fill="none" stroke="#000000" stroke-width="2" stroke-opacity="0.200000" d="M242.9099,-582.0595C247.5858,-605.5617 263.4165,-667.0084 304.5281,-691.7142 342.8029,-714.7153 396.7057,-699.761 428.1728,-687.3539"/>
<polygon fill="#000000" fill-opacity="0.200000" stroke="#000000" stroke-width="2" stroke-opacity="0.200000" points="429.0101,-689.2805 433.7785,-685.0766 427.4293,-685.3894 429.0101,-689.2805"/>
</g>
<!-- src/dao/productDAO.ts -->
<g id="node17" class="node">
<title>src/dao/productDAO.ts</title>
<g id="a_node17"><a xlink:href="src/dao/productDAO.ts" xlink:title="productDAO.ts">
<path fill="#ddfeff" stroke="#000000" d="M381.3455,-603.0153C381.3455,-603.0153 318.7228,-603.0153 318.7228,-603.0153 315.6224,-603.0153 312.522,-599.9149 312.522,-596.8146 312.522,-596.8146 312.522,-590.6139 312.522,-590.6139 312.522,-587.5135 315.6224,-584.4132 318.7228,-584.4132 318.7228,-584.4132 381.3455,-584.4132 381.3455,-584.4132 384.4459,-584.4132 387.5463,-587.5135 387.5463,-590.6139 387.5463,-590.6139 387.5463,-596.8146 387.5463,-596.8146 387.5463,-599.9149 384.4459,-603.0153 381.3455,-603.0153"/>
<text text-anchor="start" x="320.5281" y="-591.0142" font-family="Helvetica,sans-Serif" font-size="9.00" fill="#000000">productDAO.ts</text>
</a>
</g>
</g>
<!-- src/controllers/productController.ts&#45;&gt;src/dao/productDAO.ts -->
<g id="edge3" class="edge">
<title>src/controllers/productController.ts-&gt;src/dao/productDAO.ts</title>
<path fill="none" stroke="#000000" stroke-width="2" stroke-opacity="0.200000" d="M288.3451,-581.803C294.3731,-582.9669 300.5231,-584.1544 306.4916,-585.3068"/>
<polygon fill="#000000" fill-opacity="0.200000" stroke="#000000" stroke-width="2" stroke-opacity="0.200000" points="306.099,-587.3697 312.3884,-586.4454 306.8954,-583.2459 306.099,-587.3697"/>
</g>
<!-- src/controllers/productController.ts&#45;&gt;src/errors/productError.ts -->
<g id="edge4" class="edge">
<title>src/controllers/productController.ts-&gt;src/errors/productError.ts</title>
<path fill="none" stroke="#000000" stroke-width="2" stroke-opacity="0.200000" d="M288.4447,-563.6827C291.4692,-561.7692 294.2205,-559.4712 296.5281,-556.7142 307.4281,-543.6917 291.907,-492.0765 304.5281,-480.7142 319.5523,-467.1885 371.499,-473.8103 409.908,-481.0781"/>
<polygon fill="#000000" fill-opacity="0.200000" stroke="#000000" stroke-width="2" stroke-opacity="0.200000" points="409.6587,-483.1687 415.9484,-482.2471 410.4567,-479.0452 409.6587,-483.1687"/>
</g>
<!-- src/utilities.ts -->
<g id="node19" class="node">
<title>src/utilities.ts</title>
<g id="a_node19"><a xlink:href="src/utilities.ts" xlink:title="utilities.ts">
<path fill="#ddfeff" stroke="#000000" d="M370.8334,-670.0153C370.8334,-670.0153 329.2349,-670.0153 329.2349,-670.0153 326.1345,-670.0153 323.0341,-666.9149 323.0341,-663.8146 323.0341,-663.8146 323.0341,-657.6139 323.0341,-657.6139 323.0341,-654.5135 326.1345,-651.4132 329.2349,-651.4132 329.2349,-651.4132 370.8334,-651.4132 370.8334,-651.4132 373.9338,-651.4132 377.0341,-654.5135 377.0341,-657.6139 377.0341,-657.6139 377.0341,-663.8146 377.0341,-663.8146 377.0341,-666.9149 373.9338,-670.0153 370.8334,-670.0153"/>
<text text-anchor="start" x="331.5346" y="-658.0142" font-family="Helvetica,sans-Serif" font-size="9.00" fill="#000000">utilities.ts</text>
</a>
</g>
</g>
<!-- src/controllers/productController.ts&#45;&gt;src/utilities.ts -->
<g id="edge5" class="edge">
<title>src/controllers/productController.ts-&gt;src/utilities.ts</title>
<path fill="none" stroke="#000000" stroke-width="2" stroke-opacity="0.200000" d="M288.5147,-579.3548C291.4816,-581.0718 294.2034,-583.1662 296.5281,-585.7142 313.7696,-604.6127 288.7068,-622.6118 304.5281,-642.7142 307.8515,-646.9369 312.3106,-650.1718 317.1412,-652.6492"/>
<polygon fill="#000000" fill-opacity="0.200000" stroke="#000000" stroke-width="2" stroke-opacity="0.200000" points="316.601,-654.7071 322.9369,-655.2234 318.3058,-650.8686 316.601,-654.7071"/>
</g>
<!-- src/dao/productDAO.ts&#45;&gt;src/components/product.ts -->
<g id="edge20" class="edge">
<title>src/dao/productDAO.ts-&gt;src/components/product.ts</title>
<path fill="none" stroke="#000000" stroke-width="2" stroke-opacity="0.200000" d="M387.9198,-600.5896C390.7673,-602.2315 393.3702,-604.2459 395.5402,-606.7142 411.2693,-624.6056 388.081,-641.5891 403.5402,-659.7142 407.9073,-664.8344 413.9091,-668.3334 420.247,-670.7201"/>
<polygon fill="#000000" fill-opacity="0.200000" stroke="#000000" stroke-width="2" stroke-opacity="0.200000" points="419.7698,-672.7726 426.1248,-672.6137 421.0579,-668.7749 419.7698,-672.7726"/>
</g>
<!-- src/dao/productDAO.ts&#45;&gt;src/errors/productError.ts -->
<g id="edge22" class="edge">
<title>src/dao/productDAO.ts-&gt;src/errors/productError.ts</title>
<path fill="none" stroke="#000000" stroke-width="2" stroke-opacity="0.200000" d="M387.6745,-584.6332C390.6524,-582.7451 393.3493,-580.4658 395.5402,-577.7142 415.3207,-552.8721 383.3911,-531.2582 403.5402,-506.7142 405.5409,-504.2772 407.9126,-502.2062 410.5195,-500.447"/>
<polygon fill="#000000" fill-opacity="0.200000" stroke="#000000" stroke-width="2" stroke-opacity="0.200000" points="411.9696,-502.0394 416.1569,-497.2565 409.9008,-498.3842 411.9696,-502.0394"/>
</g>
<!-- src/dao/productDAO.ts&#45;&gt;src/db/db.ts -->
<g id="edge21" class="edge">
<title>src/dao/productDAO.ts-&gt;src/db/db.ts</title>
<path fill="none" stroke="#000000" stroke-width="2" stroke-opacity="0.200000" d="M387.7004,-600.1688C390.673,-601.8899 393.3616,-604.0379 395.5402,-606.7142 410.733,-625.378 389.6348,-695.0724 403.5402,-714.7142 407.8394,-720.7869 414.1947,-725.2021 420.9508,-728.4058"/>
<polygon fill="#000000" fill-opacity="0.200000" stroke="#000000" stroke-width="2" stroke-opacity="0.200000" points="420.3392,-730.4268 426.6838,-730.8217 421.9703,-726.5565 420.3392,-730.4268"/>
</g>
<!-- src/utilities.ts&#45;&gt;src/components/user.ts -->
<g id="edge64" class="edge">
<title>src/utilities.ts-&gt;src/components/user.ts</title>
<path fill="none" stroke="#000000" stroke-width="2" stroke-opacity="0.200000" d="M377.2955,-656.5104C390.5209,-654.471 406.5249,-652.0031 420.4691,-649.8529"/>
<polygon fill="#000000" fill-opacity="0.200000" stroke="#000000" stroke-width="2" stroke-opacity="0.200000" points="421.1037,-651.8799 426.7135,-648.8899 420.4636,-647.729 421.1037,-651.8799"/>
</g>
<!-- src/controllers/reviewController.ts -->
<g id="node20" class="node">
<title>src/controllers/reviewController.ts</title>
<g id="a_node20"><a xlink:href="src/controllers/reviewController.ts" xlink:title="reviewController.ts">
<path fill="#ddfeff" stroke="#000000" d="M280.5701,-489.0153C280.5701,-489.0153 201.9773,-489.0153 201.9773,-489.0153 198.877,-489.0153 195.7766,-485.9149 195.7766,-482.8146 195.7766,-482.8146 195.7766,-476.6139 195.7766,-476.6139 195.7766,-473.5135 198.877,-470.4132 201.9773,-470.4132 201.9773,-470.4132 280.5701,-470.4132 280.5701,-470.4132 283.6704,-470.4132 286.7708,-473.5135 286.7708,-476.6139 286.7708,-476.6139 286.7708,-482.8146 286.7708,-482.8146 286.7708,-485.9149 283.6704,-489.0153 280.5701,-489.0153"/>
<text text-anchor="start" x="204.0258" y="-477.0142" font-family="Helvetica,sans-Serif" font-size="9.00" fill="#000000">reviewController.ts</text>
</a>
</g>
</g>
<!-- src/controllers/reviewController.ts&#45;&gt;node_modules/dayjs -->
<g id="edge9" class="edge">
<title>src/controllers/reviewController.ts-&gt;node_modules/dayjs</title>
<path fill="none" stroke="#000000" stroke-opacity="0.200000" d="M286.5569,-474.2943C290.3073,-472.3716 293.7266,-469.8936 296.5281,-466.7142 318.9824,-441.2312 283.469,-417.3618 304.5281,-390.7142 331.1135,-357.0738 367.4276,-391.0893 395.5402,-358.7142 407.4271,-345.025 391.4503,-332.2244 403.5402,-318.7142 408.0746,-313.6471 414.2073,-310.1734 420.6294,-307.7951"/>
<polygon fill="#000000" fill-opacity="0.200000" stroke="#000000" stroke-opacity="0.200000" points="421.4902,-309.725 426.571,-305.9045 420.2167,-305.7227 421.4902,-309.725"/>
</g>
<!-- src/dao/reviewDAO.ts -->
<g id="node21" class="node">
<title>src/dao/reviewDAO.ts</title>
<g id="a_node21"><a xlink:href="src/dao/reviewDAO.ts" xlink:title="reviewDAO.ts">
<path fill="#ddfeff" stroke="#000000" d="M379.3324,-541.0153C379.3324,-541.0153 320.7359,-541.0153 320.7359,-541.0153 317.6355,-541.0153 314.5351,-537.9149 314.5351,-534.8146 314.5351,-534.8146 314.5351,-528.6139 314.5351,-528.6139 314.5351,-525.5135 317.6355,-522.4132 320.7359,-522.4132 320.7359,-522.4132 379.3324,-522.4132 379.3324,-522.4132 382.4328,-522.4132 385.5332,-525.5135 385.5332,-528.6139 385.5332,-528.6139 385.5332,-534.8146 385.5332,-534.8146 385.5332,-537.9149 382.4328,-541.0153 379.3324,-541.0153"/>
<text text-anchor="start" x="322.5346" y="-529.0142" font-family="Helvetica,sans-Serif" font-size="9.00" fill="#000000">reviewDAO.ts</text>
</a>
</g>
</g>
<!-- src/controllers/reviewController.ts&#45;&gt;src/dao/reviewDAO.ts -->
<g id="edge7" class="edge">
<title>src/controllers/reviewController.ts-&gt;src/dao/reviewDAO.ts</title>
<path fill="none" stroke="#000000" stroke-width="2" stroke-opacity="0.200000" d="M286.5797,-488.9363C290.1832,-490.7977 293.5676,-493.0322 296.5281,-495.7142 303.6232,-502.1418 297.6165,-509.0897 304.5281,-515.7142 305.9791,-517.105 307.558,-518.3756 309.2281,-519.5363"/>
<polygon fill="#000000" fill-opacity="0.200000" stroke="#000000" stroke-width="2" stroke-opacity="0.200000" points="308.2522,-521.4001 314.475,-522.6994 310.4207,-517.8032 308.2522,-521.4001"/>
</g>
<!-- src/errors/reviewError.ts -->
<g id="node22" class="node">
<title>src/errors/reviewError.ts</title>
<g id="a_node22"><a xlink:href="src/errors/reviewError.ts" xlink:title="reviewError.ts">
<path fill="#ddfeff" stroke="#000000" d="M483.5861,-438.0153C483.5861,-438.0153 423.9996,-438.0153 423.9996,-438.0153 420.8993,-438.0153 417.7989,-434.9149 417.7989,-431.8146 417.7989,-431.8146 417.7989,-425.6139 417.7989,-425.6139 417.7989,-422.5135 420.8993,-419.4132 423.9996,-419.4132 423.9996,-419.4132 483.5861,-419.4132 483.5861,-419.4132 486.6864,-419.4132 489.7868,-422.5135 489.7868,-425.6139 489.7868,-425.6139 489.7868,-431.8146 489.7868,-431.8146 489.7868,-434.9149 486.6864,-438.0153 483.5861,-438.0153"/>
<text text-anchor="start" x="426.0467" y="-426.0142" font-family="Helvetica,sans-Serif" font-size="9.00" fill="#000000">reviewError.ts</text>
</a>
</g>
</g>
<!-- src/controllers/reviewController.ts&#45;&gt;src/errors/reviewError.ts -->
<g id="edge8" class="edge">
<title>src/controllers/reviewController.ts-&gt;src/errors/reviewError.ts</title>
<path fill="none" stroke="#000000" stroke-width="2" stroke-opacity="0.200000" d="M286.6318,-471.7268C290.1001,-470.3184 293.4457,-468.662 296.5281,-466.7142 301.3396,-463.6737 299.6485,-459.6441 304.5281,-456.7142 337.0571,-437.1825 380.1816,-430.7618 411.7105,-428.8838"/>
<polygon fill="#000000" fill-opacity="0.200000" stroke="#000000" stroke-width="2" stroke-opacity="0.200000" points="411.9715,-430.9732 417.8551,-428.5662 411.7546,-426.7788 411.9715,-430.9732"/>
</g>
<!-- src/dao/reviewDAO.ts&#45;&gt;src/components/review.ts -->
<g id="edge23" class="edge">
<title>src/dao/reviewDAO.ts-&gt;src/components/review.ts</title>
<path fill="none" stroke="#000000" stroke-width="2" stroke-opacity="0.200000" d="M385.7974,-539.8778C389.4853,-541.931 392.8566,-544.5 395.5402,-547.7142 409.9637,-564.9894 388.8605,-580.6562 403.5402,-597.7142 408.0213,-602.9213 414.1925,-606.4506 420.6782,-608.8381"/>
<polygon fill="#000000" fill-opacity="0.200000" stroke="#000000" stroke-width="2" stroke-opacity="0.200000" points="420.3297,-610.9298 426.6833,-610.7253 421.5888,-606.923 420.3297,-610.9298"/>
</g>
<!-- src/dao/reviewDAO.ts&#45;&gt;src/errors/reviewError.ts -->
<g id="edge25" class="edge">
<title>src/dao/reviewDAO.ts-&gt;src/errors/reviewError.ts</title>
<path fill="none" stroke="#000000" stroke-width="2" stroke-opacity="0.200000" d="M385.9439,-523.67C389.6066,-521.5963 392.932,-518.9899 395.5402,-515.7142 415.3207,-490.8721 383.3911,-469.2582 403.5402,-444.7142 406.0183,-441.6955 409.0659,-439.2386 412.4242,-437.24"/>
<polygon fill="#000000" fill-opacity="0.200000" stroke="#000000" stroke-width="2" stroke-opacity="0.200000" points="413.5129,-439.0428 417.9203,-434.4619 411.6182,-435.2945 413.5129,-439.0428"/>
</g>
<!-- src/dao/reviewDAO.ts&#45;&gt;src/db/db.ts -->
<g id="edge24" class="edge">
<title>src/dao/reviewDAO.ts-&gt;src/db/db.ts</title>
<path fill="none" stroke="#000000" stroke-width="2" stroke-opacity="0.200000" d="M385.7141,-539.3492C389.5163,-541.4884 392.9386,-544.222 395.5402,-547.7142 417.7366,-577.5088 382.4696,-684.1132 403.5402,-714.7142 407.7599,-720.8425 414.0842,-725.2792 420.8356,-728.4862"/>
<polygon fill="#000000" fill-opacity="0.200000" stroke="#000000" stroke-width="2" stroke-opacity="0.200000" points="420.2257,-730.5079 426.5704,-730.9009 421.8556,-726.637 420.2257,-730.5079"/>
</g>
<!-- src/controllers/userController.ts -->
<g id="node23" class="node">
<title>src/controllers/userController.ts</title>
<g id="a_node23"><a xlink:href="src/controllers/userController.ts" xlink:title="userController.ts">
<path fill="#ddfeff" stroke="#000000" d="M276.0745,-551.0153C276.0745,-551.0153 206.4729,-551.0153 206.4729,-551.0153 203.3726,-551.0153 200.2722,-547.9149 200.2722,-544.8146 200.2722,-544.8146 200.2722,-538.6139 200.2722,-538.6139 200.2722,-535.5135 203.3726,-532.4132 206.4729,-532.4132 206.4729,-532.4132 276.0745,-532.4132 276.0745,-532.4132 279.1748,-532.4132 282.2752,-535.5135 282.2752,-538.6139 282.2752,-538.6139 282.2752,-544.8146 282.2752,-544.8146 282.2752,-547.9149 279.1748,-551.0153 276.0745,-551.0153"/>
<text text-anchor="start" x="208.2729" y="-539.0142" font-family="Helvetica,sans-Serif" font-size="9.00" fill="#000000">userController.ts</text>
</a>
</g>
</g>
<!-- src/controllers/userController.ts&#45;&gt;node_modules/dayjs -->
<g id="edge14" class="edge">
<title>src/controllers/userController.ts-&gt;node_modules/dayjs</title>
<path fill="none" stroke="#000000" stroke-opacity="0.200000" d="M282.4852,-536.0043C287.8832,-533.6092 292.8181,-530.2918 296.5281,-525.7142 311.8206,-506.8458 289.7722,-436.0051 304.5281,-416.7142 330.5784,-382.6578 368.6908,-418.1443 395.5402,-384.7142 414.0429,-361.6765 384.6956,-341.4731 403.5402,-318.7142 407.9215,-313.4228 414.0514,-309.8587 420.5285,-307.4639"/>
<polygon fill="#000000" fill-opacity="0.200000" stroke="#000000" stroke-opacity="0.200000" points="421.4394,-309.379 426.5343,-305.5774 420.1807,-305.3721 421.4394,-309.379"/>
</g>
<!-- src/controllers/userController.ts&#45;&gt;src/components/user.ts -->
<g id="edge10" class="edge">
<title>src/controllers/userController.ts-&gt;src/components/user.ts</title>
<path fill="none" stroke="#000000" stroke-width="2" stroke-opacity="0.200000" d="M282.3519,-547.534C287.7678,-549.9144 292.743,-553.1985 296.5281,-557.7142 307.2952,-570.5598 292.5228,-621.0176 304.5281,-632.7142 312.6533,-640.6305 379.0843,-643.3304 420.5387,-644.247"/>
<polygon fill="#000000" fill-opacity="0.200000" stroke="#000000" stroke-width="2" stroke-opacity="0.200000" points="420.672,-646.3501 426.7142,-644.3745 420.7588,-642.151 420.672,-646.3501"/>
</g>
<!-- src/controllers/userController.ts&#45;&gt;src/utilities.ts -->
<g id="edge13" class="edge">
<title>src/controllers/userController.ts-&gt;src/utilities.ts</title>
<path fill="none" stroke="#000000" stroke-width="2" stroke-opacity="0.200000" d="M282.4019,-547.4924C287.811,-549.8783 292.7712,-553.175 296.5281,-557.7142 308.625,-572.3298 293.1373,-627.5418 304.5281,-642.7142 307.7544,-647.0116 312.1643,-650.2843 316.976,-652.7762"/>
<polygon fill="#000000" fill-opacity="0.200000" stroke="#000000" stroke-width="2" stroke-opacity="0.200000" points="316.4272,-654.8309 322.7623,-655.3576 318.1384,-650.9952 316.4272,-654.8309"/>
</g>
<!-- src/dao/userDAO.ts -->
<g id="node24" class="node">
<title>src/dao/userDAO.ts</title>
<g id="a_node24"><a xlink:href="src/dao/userDAO.ts" xlink:title="userDAO.ts">
<path fill="#ddfeff" stroke="#000000" d="M374.8402,-572.0153C374.8402,-572.0153 325.2281,-572.0153 325.2281,-572.0153 322.1278,-572.0153 319.0274,-568.9149 319.0274,-565.8146 319.0274,-565.8146 319.0274,-559.6139 319.0274,-559.6139 319.0274,-556.5135 322.1278,-553.4132 325.2281,-553.4132 325.2281,-553.4132 374.8402,-553.4132 374.8402,-553.4132 377.9405,-553.4132 381.0409,-556.5135 381.0409,-559.6139 381.0409,-559.6139 381.0409,-565.8146 381.0409,-565.8146 381.0409,-568.9149 377.9405,-572.0153 374.8402,-572.0153"/>
<text text-anchor="start" x="326.7817" y="-560.0142" font-family="Helvetica,sans-Serif" font-size="9.00" fill="#000000">userDAO.ts</text>
</a>
</g>
</g>
<!-- src/controllers/userController.ts&#45;&gt;src/dao/userDAO.ts -->
<g id="edge11" class="edge">
<title>src/controllers/userController.ts-&gt;src/dao/userDAO.ts</title>
<path fill="none" stroke="#000000" stroke-width="2" stroke-opacity="0.200000" d="M282.3914,-549.6534C292.3544,-551.5771 302.95,-553.623 312.7264,-555.5106"/>
<polygon fill="#000000" fill-opacity="0.200000" stroke="#000000" stroke-width="2" stroke-opacity="0.200000" points="312.4053,-557.5874 318.6947,-556.663 313.2017,-553.4635 312.4053,-557.5874"/>
</g>
<!-- src/errors/userError.ts -->
<g id="node25" class="node">
<title>src/errors/userError.ts</title>
<g id="a_node25"><a xlink:href="src/errors/userError.ts" xlink:title="userError.ts">
<path fill="#ddfeff" stroke="#000000" d="M479.0901,-469.0153C479.0901,-469.0153 428.4956,-469.0153 428.4956,-469.0153 425.3952,-469.0153 422.2948,-465.9149 422.2948,-462.8146 422.2948,-462.8146 422.2948,-456.6139 422.2948,-456.6139 422.2948,-453.5135 425.3952,-450.4132 428.4956,-450.4132 428.4956,-450.4132 479.0901,-450.4132 479.0901,-450.4132 482.1905,-450.4132 485.2909,-453.5135 485.2909,-456.6139 485.2909,-456.6139 485.2909,-462.8146 485.2909,-462.8146 485.2909,-465.9149 482.1905,-469.0153 479.0901,-469.0153"/>
<text text-anchor="start" x="430.2938" y="-457.0142" font-family="Helvetica,sans-Serif" font-size="9.00" fill="#000000">userError.ts</text>
</a>
</g>
</g>
<!-- src/controllers/userController.ts&#45;&gt;src/errors/userError.ts -->
<g id="edge12" class="edge">
<title>src/controllers/userController.ts-&gt;src/errors/userError.ts</title>
<path fill="none" stroke="#000000" stroke-width="2" stroke-opacity="0.200000" d="M282.4861,-535.6524C287.8147,-533.2988 292.7287,-530.0864 296.5281,-525.7142 313.0193,-506.7368 286.0963,-486.813 304.5281,-469.7142 320.1619,-455.2111 377.1576,-455.1997 416.0179,-457.0558"/>
<polygon fill="#000000" fill-opacity="0.200000" stroke="#000000" stroke-width="2" stroke-opacity="0.200000" points="415.99,-459.1571 422.0899,-457.3678 416.2056,-454.9626 415.99,-459.1571"/>
</g>
<!-- src/dao/userDAO.ts&#45;&gt;crypto -->
<g id="edge29" class="edge">
<title>src/dao/userDAO.ts-&gt;crypto</title>
<path fill="none" stroke="#000000" stroke-dasharray="5,2" stroke-opacity="0.200000" d="M381.1459,-557.2648C386.7276,-554.9045 391.9138,-551.5314 395.5402,-546.7142 414.0153,-522.1729 385.9925,-433.927 403.5402,-408.7142 407.7906,-402.6072 414.1269,-398.1787 420.8801,-394.973"/>
<polygon fill="#000000" fill-opacity="0.200000" stroke="#000000" stroke-opacity="0.200000" points="421.8999,-396.8222 426.6142,-392.5578 420.2695,-392.9516 421.8999,-396.8222"/>
</g>
<!-- src/dao/userDAO.ts&#45;&gt;src/components/user.ts -->
<g id="edge26" class="edge">
<title>src/dao/userDAO.ts-&gt;src/components/user.ts</title>
<path fill="none" stroke="#000000" stroke-width="2" stroke-opacity="0.200000" d="M381.2437,-568.6532C386.6783,-570.979 391.7831,-574.2143 395.5402,-578.7142 409.9637,-595.9894 388.8605,-611.6562 403.5402,-628.7142 408.0213,-633.9213 414.1925,-637.4506 420.6782,-639.8381"/>
<polygon fill="#000000" fill-opacity="0.200000" stroke="#000000" stroke-width="2" stroke-opacity="0.200000" points="420.3297,-641.9298 426.6833,-641.7253 421.5888,-637.923 420.3297,-641.9298"/>
</g>
<!-- src/dao/userDAO.ts&#45;&gt;src/errors/userError.ts -->
<g id="edge28" class="edge">
<title>src/dao/userDAO.ts-&gt;src/errors/userError.ts</title>
<path fill="none" stroke="#000000" stroke-width="2" stroke-opacity="0.200000" d="M381.4108,-556.9115C386.8317,-554.5744 391.8887,-551.3001 395.5402,-546.7142 415.3207,-521.8721 383.3911,-500.2582 403.5402,-475.7142 406.9225,-471.5942 411.3653,-468.5206 416.2115,-466.2306"/>
<polygon fill="#000000" fill-opacity="0.200000" stroke="#000000" stroke-width="2" stroke-opacity="0.200000" points="417.2617,-468.0719 422.0464,-463.8865 415.696,-464.1746 417.2617,-468.0719"/>
</g>
<!-- src/dao/userDAO.ts&#45;&gt;src/db/db.ts -->
<g id="edge27" class="edge">
<title>src/dao/userDAO.ts-&gt;src/db/db.ts</title>
<path fill="none" stroke="#000000" stroke-width="2" stroke-opacity="0.200000" d="M381.1427,-568.166C386.7246,-570.5261 391.9117,-573.8986 395.5402,-578.7142 413.7587,-602.8933 386.2354,-689.873 403.5402,-714.7142 407.7932,-720.8194 414.1305,-725.2472 420.8838,-728.4528"/>
<polygon fill="#000000" fill-opacity="0.200000" stroke="#000000" stroke-width="2" stroke-opacity="0.200000" points="420.2732,-730.4742 426.6179,-730.868 421.9036,-726.6036 420.2732,-730.4742"/>
</g>
<!-- src/db/db.ts&#45;&gt;node_modules/sqlite3 -->
<g id="edge31" class="edge">
<title>src/db/db.ts-&gt;node_modules/sqlite3</title>
<path fill="none" stroke="#000000" stroke-opacity="0.200000" d="M426.6537,-731.5124C414.9744,-727.5689 403.1646,-720.6847 399.5402,-708.7142 394.2114,-691.1144 394.2114,-395.3141 399.5402,-377.7142 403.7153,-363.9248 415.6997,-353.4579 427.3459,-346.1995"/>
<polygon fill="#000000" fill-opacity="0.200000" stroke="#000000" stroke-opacity="0.200000" points="428.5323,-347.9382 432.6438,-343.0899 426.4062,-344.316 428.5323,-347.9382"/>
</g>
<!-- src/db/cleanup.ts -->
<g id="node28" class="node">
<title>src/db/cleanup.ts</title>
<g id="a_node28"><a xlink:href="src/db/cleanup.ts" xlink:title="cleanup.ts">
<path fill="#ddfeff" stroke="#000000" d="M372.3483,-746.0153C372.3483,-746.0153 327.72,-746.0153 327.72,-746.0153 324.6197,-746.0153 321.5193,-742.9149 321.5193,-739.8146 321.5193,-739.8146 321.5193,-733.6139 321.5193,-733.6139 321.5193,-730.5135 324.6197,-727.4132 327.72,-727.4132 327.72,-727.4132 372.3483,-727.4132 372.3483,-727.4132 375.4486,-727.4132 378.549,-730.5135 378.549,-733.6139 378.549,-733.6139 378.549,-739.8146 378.549,-739.8146 378.549,-742.9149 375.4486,-746.0153 372.3483,-746.0153"/>
<text text-anchor="start" x="329.5267" y="-734.0142" font-family="Helvetica,sans-Serif" font-size="9.00" fill="#000000">cleanup.ts</text>
</a>
</g>
</g>
<!-- src/db/cleanup.ts&#45;&gt;src/db/db.ts -->
<g id="edge30" class="edge">
<title>src/db/cleanup.ts-&gt;src/db/db.ts</title>
<path fill="none" stroke="#000000" stroke-width="2" stroke-opacity="0.200000" d="M378.6613,-736.7142C391.6657,-736.7142 407.1278,-736.7142 420.6347,-736.7142"/>
<polygon fill="#000000" fill-opacity="0.200000" stroke="#000000" stroke-width="2" stroke-opacity="0.200000" points="420.6871,-738.8143 426.6871,-736.7142 420.6871,-734.6143 420.6871,-738.8143"/>
</g>
<!-- src/helper.ts -->
<g id="node29" class="node">
<title>src/helper.ts</title>
<g id="a_node29"><a xlink:href="src/helper.ts" xlink:title="helper.ts">
<path fill="#ddfeff" stroke="#000000" d="M262.073,-455.0153C262.073,-455.0153 220.4744,-455.0153 220.4744,-455.0153 217.3741,-455.0153 214.2737,-451.9149 214.2737,-448.8146 214.2737,-448.8146 214.2737,-442.6139 214.2737,-442.6139 214.2737,-439.5135 217.3741,-436.4132 220.4744,-436.4132 220.4744,-436.4132 262.073,-436.4132 262.073,-436.4132 265.1733,-436.4132 268.2737,-439.5135 268.2737,-442.6139 268.2737,-442.6139 268.2737,-448.8146 268.2737,-448.8146 268.2737,-451.9149 265.1733,-455.0153 262.073,-455.0153"/>
<text text-anchor="start" x="224.0198" y="-443.0142" font-family="Helvetica,sans-Serif" font-size="9.00" fill="#000000">helper.ts</text>
</a>
</g>
</g>
<!-- src/helper.ts&#45;&gt;node_modules/express&#45;validator -->
<g id="edge32" class="edge">
<title>src/helper.ts-&gt;node_modules/express-validator</title>
<path fill="none" stroke="#000000" stroke-opacity="0.200000" d="M246.2288,-436.2826C255.4884,-419.5308 276.9954,-384.4929 304.5281,-364.7142 339.3513,-339.6982 367.7766,-365.389 395.5402,-332.7142 408.6935,-317.2342 390.1572,-302.9962 403.5402,-287.7142 404.3998,-286.7327 405.3194,-285.8108 406.2896,-284.9451"/>
<polygon fill="#000000" fill-opacity="0.200000" stroke="#000000" stroke-opacity="0.200000" points="407.9509,-286.3276 411.5199,-281.067 405.4494,-282.9538 407.9509,-286.3276"/>
</g>
<!-- src/routers/auth.ts -->
<g id="node30" class="node">
<title>src/routers/auth.ts</title>
<g id="a_node30"><a xlink:href="src/routers/auth.ts" xlink:title="auth.ts">
<path fill="#ddfeff" stroke="#000000" d="M148.8089,-438.0153C148.8089,-438.0153 107.2104,-438.0153 107.2104,-438.0153 104.11,-438.0153 101.0096,-434.9149 101.0096,-431.8146 101.0096,-431.8146 101.0096,-425.6139 101.0096,-425.6139 101.0096,-422.5135 104.11,-419.4132 107.2104,-419.4132 107.2104,-419.4132 148.8089,-419.4132 148.8089,-419.4132 151.9093,-419.4132 155.0096,-422.5135 155.0096,-425.6139 155.0096,-425.6139 155.0096,-431.8146 155.0096,-431.8146 155.0096,-434.9149 151.9093,-438.0153 148.8089,-438.0153"/>
<text text-anchor="start" x="114.5033" y="-426.0142" font-family="Helvetica,sans-Serif" font-size="9.00" fill="#000000">auth.ts</text>
</a>
</g>
</g>
<!-- src/routers/auth.ts&#45;&gt;node_modules/express&#45;session -->
<g id="edge35" class="edge">
<title>src/routers/auth.ts-&gt;node_modules/express-session</title>
<path fill="none" stroke="#000000" stroke-opacity="0.200000" d="M128.153,-419.1125C129.1076,-369.8777 136.1701,-146.431 186.0193,-104.7142 257.4324,-44.9515 325.3396,-43.5318 395.5402,-104.7142 415.1573,-121.8112 386.7803,-142.8084 403.5402,-162.7142 404.8376,-164.2551 406.2831,-165.6493 407.8417,-166.9106"/>
<polygon fill="#000000" fill-opacity="0.200000" stroke="#000000" stroke-opacity="0.200000" points="406.6822,-168.6618 412.8218,-170.31 409.0501,-165.1929 406.6822,-168.6618"/>
</g>
<!-- src/routers/auth.ts&#45;&gt;node_modules/passport -->
<g id="edge36" class="edge">
<title>src/routers/auth.ts-&gt;node_modules/passport</title>
<path fill="none" stroke="#000000" stroke-opacity="0.200000" d="M128.7679,-419.08C133.2766,-363.0006 157.337,-80.2806 186.0193,-55.7142 221.3821,-25.426 361.0724,-25.4113 395.5402,-56.7142 407.9481,-67.9828 392.9435,-118.7277 403.5402,-131.7142 407.9277,-137.0912 414.1225,-140.6868 420.6697,-143.0844"/>
<polygon fill="#000000" fill-opacity="0.200000" stroke="#000000" stroke-opacity="0.200000" points="420.387,-145.1954 426.7397,-144.9664 421.6307,-141.1837 420.387,-145.1954"/>
</g>
<!-- src/routers/auth.ts&#45;&gt;node_modules/passport&#45;local -->
<g id="edge37" class="edge">
<title>src/routers/auth.ts-&gt;node_modules/passport-local</title>
<path fill="none" stroke="#000000" stroke-opacity="0.200000" d="M128.308,-419.2671C129.9924,-372.7407 139.9551,-168.676 186.0193,-130.7142 221.9503,-101.1032 360.605,-99.9347 395.5402,-130.7142 416.718,-149.3728 385.4778,-172.0257 403.5402,-193.7142 406.0011,-196.6692 409.0072,-199.0852 412.3133,-201.0596"/>
<polygon fill="#000000" fill-opacity="0.200000" stroke="#000000" stroke-opacity="0.200000" points="411.4206,-202.9616 417.7203,-203.8127 413.3263,-199.2188 411.4206,-202.9616"/>
</g>
<!-- src/routers/auth.ts&#45;&gt;src/utilities.ts -->
<g id="edge34" class="edge">
<title>src/routers/auth.ts-&gt;src/utilities.ts</title>
<path fill="none" stroke="#000000" stroke-width="2" stroke-opacity="0.200000" d="M155.1756,-431.302C163.8101,-433.5332 172.5323,-437.5493 178.0193,-444.7142 189.7865,-460.0798 173.8043,-603.7022 186.0193,-618.7142 217.2352,-657.0781 278.2743,-663.1549 316.4456,-662.8142"/>
<polygon fill="#000000" fill-opacity="0.200000" stroke="#000000" stroke-width="2" stroke-opacity="0.200000" points="316.8707,-664.9068 322.8306,-662.6956 316.7926,-660.7075 316.8707,-664.9068"/>
</g>
<!-- src/routers/auth.ts&#45;&gt;src/dao/userDAO.ts -->
<g id="edge33" class="edge">
<title>src/routers/auth.ts-&gt;src/dao/userDAO.ts</title>
<path fill="none" stroke="#000000" stroke-width="2" stroke-opacity="0.200000" d="M155.1678,-431.3079C163.8017,-433.5396 172.5254,-437.5546 178.0193,-444.7142 189.3283,-459.4521 172.5729,-598.8965 186.0193,-611.7142 194.907,-620.1863 286.877,-619.3052 296.5281,-611.7142 308.3901,-602.3843 294.405,-589.9069 304.5281,-578.7142 306.9155,-576.0746 309.7644,-573.8704 312.8558,-572.0298"/>
<polygon fill="#000000" fill-opacity="0.200000" stroke="#000000" stroke-width="2" stroke-opacity="0.200000" points="314.2367,-573.6838 318.6349,-569.094 312.3344,-569.9393 314.2367,-573.6838"/>
</g>
<!-- src/routers/cartRoutes.ts -->
<g id="node31" class="node">
<title>src/routers/cartRoutes.ts</title>
<g id="a_node31"><a xlink:href="src/routers/cartRoutes.ts" xlink:title="cartRoutes.ts">
<path fill="#ddfeff" stroke="#000000" d="M156.3189,-469.0153C156.3189,-469.0153 99.7004,-469.0153 99.7004,-469.0153 96.6,-469.0153 93.4996,-465.9149 93.4996,-462.8146 93.4996,-462.8146 93.4996,-456.6139 93.4996,-456.6139 93.4996,-453.5135 96.6,-450.4132 99.7004,-450.4132 99.7004,-450.4132 156.3189,-450.4132 156.3189,-450.4132 159.4193,-450.4132 162.5197,-453.5135 162.5197,-456.6139 162.5197,-456.6139 162.5197,-462.8146 162.5197,-462.8146 162.5197,-465.9149 159.4193,-469.0153 156.3189,-469.0153"/>
<text text-anchor="start" x="101.5046" y="-457.0142" font-family="Helvetica,sans-Serif" font-size="9.00" fill="#000000">cartRoutes.ts</text>
</a>
</g>
</g>
<!-- src/routers/cartRoutes.ts&#45;&gt;node_modules/express -->
<g id="edge40" class="edge">
<title>src/routers/cartRoutes.ts-&gt;node_modules/express</title>
<path fill="none" stroke="#000000" stroke-opacity="0.200000" d="M162.5207,-454.8295C168.5524,-452.4227 174.1308,-448.8881 178.0193,-443.7142 187.6025,-430.9633 174.5844,-167.8348 186.0193,-156.7142 219.3979,-124.2531 360.7469,-125.7743 395.5402,-156.7142 406.9102,-166.825 393.8571,-212.9778 403.5402,-224.7142 407.9568,-230.0673 414.1634,-233.6532 420.7129,-236.049"/>
<polygon fill="#000000" fill-opacity="0.200000" stroke="#000000" stroke-opacity="0.200000" points="420.4298,-238.1598 426.7826,-237.9312 421.6738,-234.1482 420.4298,-238.1598"/>
</g>
<!-- src/routers/cartRoutes.ts&#45;&gt;node_modules/express&#45;validator -->
<g id="edge41" class="edge">
<title>src/routers/cartRoutes.ts-&gt;node_modules/express-validator</title>
<path fill="none" stroke="#000000" stroke-opacity="0.200000" d="M162.7505,-454.7084C168.6864,-452.3056 174.1698,-448.8033 178.0193,-443.7142 193.7804,-422.8775 167.2336,-226.8713 186.0193,-208.7142 252.9761,-143.998 324.3838,-148.6461 395.5402,-208.7142 411.7317,-222.3826 389.6389,-239.7223 403.5402,-255.7142 404.3962,-256.6989 405.3125,-257.6236 406.28,-258.4918"/>
<polygon fill="#000000" fill-opacity="0.200000" stroke="#000000" stroke-opacity="0.200000" points="405.4327,-260.4793 411.4989,-262.3797 407.9418,-257.1111 405.4327,-260.4793"/>
</g>
<!-- src/routers/cartRoutes.ts&#45;&gt;src/controllers/cartController.ts -->
<g id="edge38" class="edge">
<title>src/routers/cartRoutes.ts-&gt;src/controllers/cartController.ts</title>
<path fill="none" stroke="#000000" stroke-width="2" stroke-opacity="0.200000" d="M162.6837,-466.4645C168.2718,-468.7147 173.6475,-471.7147 178.0193,-475.7142 184.7795,-481.8988 179.1738,-488.6241 186.0193,-494.7142 188.9083,-497.2844 192.1873,-499.4431 195.6724,-501.2561"/>
<polygon fill="#000000" fill-opacity="0.200000" stroke="#000000" stroke-width="2" stroke-opacity="0.200000" points="194.9624,-503.2406 201.2919,-503.8298 196.7113,-499.422 194.9624,-503.2406"/>
</g>
<!-- src/routers/cartRoutes.ts&#45;&gt;src/helper.ts -->
<g id="edge39" class="edge">
<title>src/routers/cartRoutes.ts-&gt;src/helper.ts</title>
<path fill="none" stroke="#000000" stroke-width="2" stroke-opacity="0.200000" d="M162.608,-455.4377C177.0668,-453.6505 193.7958,-451.5827 208.0996,-449.8147"/>
<polygon fill="#000000" fill-opacity="0.200000" stroke="#000000" stroke-width="2" stroke-opacity="0.200000" points="208.3706,-451.8973 214.0676,-449.077 207.8553,-447.729 208.3706,-451.8973"/>
</g>
<!-- src/routers/productRoutes.ts -->
<g id="node32" class="node">
<title>src/routers/productRoutes.ts</title>
<g id="a_node32"><a xlink:href="src/routers/productRoutes.ts" xlink:title="productRoutes.ts">
<path fill="#ddfeff" stroke="#000000" d="M163.8283,-562.0153C163.8283,-562.0153 92.191,-562.0153 92.191,-562.0153 89.0907,-562.0153 85.9903,-558.9149 85.9903,-555.8146 85.9903,-555.8146 85.9903,-549.6139 85.9903,-549.6139 85.9903,-546.5135 89.0907,-543.4132 92.191,-543.4132 92.191,-543.4132 163.8283,-543.4132 163.8283,-543.4132 166.9286,-543.4132 170.029,-546.5135 170.029,-549.6139 170.029,-549.6139 170.029,-555.8146 170.029,-555.8146 170.029,-558.9149 166.9286,-562.0153 163.8283,-562.0153"/>
<text text-anchor="start" x="94" y="-550.0142" font-family="Helvetica,sans-Serif" font-size="9.00" fill="#000000">productRoutes.ts</text>
</a>
</g>
</g>
<!-- src/routers/productRoutes.ts&#45;&gt;node_modules/express -->
<g id="edge45" class="edge">
<title>src/routers/productRoutes.ts-&gt;node_modules/express</title>
<path fill="none" stroke="#000000" stroke-opacity="0.200000" d="M170.0363,-543.9721C173.0834,-542.01 175.8179,-539.621 178.0193,-536.7142 193.2565,-516.5951 170.2105,-329.3874 186.0193,-309.7142 200.8698,-291.2336 352.2391,-260.1897 420.6001,-246.9746"/>
<polygon fill="#000000" fill-opacity="0.200000" stroke="#000000" stroke-opacity="0.200000" points="421.0622,-249.0243 426.5569,-245.8277 420.268,-244.9001 421.0622,-249.0243"/>
</g>
<!-- src/routers/productRoutes.ts&#45;&gt;node_modules/express&#45;validator -->
<g id="edge46" class="edge">
<title>src/routers/productRoutes.ts-&gt;node_modules/express-validator</title>
<path fill="none" stroke="#000000" stroke-opacity="0.200000" d="M170.4207,-543.6206C173.3005,-541.7276 175.8956,-539.4508 178.0193,-536.7142 196.58,-512.7967 170.0022,-426.4046 186.0193,-400.7142 234.0215,-323.7219 342.4029,-291.637 405.5789,-279.092"/>
<polygon fill="#000000" fill-opacity="0.200000" stroke="#000000" stroke-opacity="0.200000" points="406.0557,-281.1388 411.5481,-277.9381 405.2585,-277.0151 406.0557,-281.1388"/>
</g>
<!-- src/routers/productRoutes.ts&#45;&gt;src/components/product.ts -->
<g id="edge42" class="edge">
<title>src/routers/productRoutes.ts-&gt;src/components/product.ts</title>
<path fill="none" stroke="#000000" stroke-width="2" stroke-opacity="0.200000" d="M128.9455,-562.1188C131.9776,-587.1066 143.9267,-655.3798 186.0193,-686.7142 223.4506,-714.5787 349.8315,-710.1082 395.5402,-700.7142 407.9103,-698.1719 420.8949,-692.8857 431.4578,-687.8263"/>
<polygon fill="#000000" fill-opacity="0.200000" stroke="#000000" stroke-width="2" stroke-opacity="0.200000" points="432.6099,-689.5994 437.0577,-685.0577 430.7484,-685.8345 432.6099,-689.5994"/>
</g>
<!-- src/routers/productRoutes.ts&#45;&gt;src/controllers/productController.ts -->
<g id="edge43" class="edge">
<title>src/routers/productRoutes.ts-&gt;src/controllers/productController.ts</title>
<path fill="none" stroke="#000000" stroke-width="2" stroke-opacity="0.200000" d="M170.185,-560.1615C176.0343,-561.1943 182.1041,-562.2661 188.1213,-563.3286"/>
<polygon fill="#000000" fill-opacity="0.200000" stroke="#000000" stroke-width="2" stroke-opacity="0.200000" points="187.8371,-565.4109 194.1109,-564.3863 188.5675,-561.2749 187.8371,-565.4109"/>
</g>
<!-- src/routers/productRoutes.ts&#45;&gt;src/helper.ts -->
<g id="edge44" class="edge">
<title>src/routers/productRoutes.ts-&gt;src/helper.ts</title>
<path fill="none" stroke="#000000" stroke-width="2" stroke-opacity="0.200000" d="M170.2886,-543.5157C173.1971,-541.6454 175.8349,-539.4026 178.0193,-536.7142 199.7163,-510.0113 163.5116,-485.7374 186.0193,-459.7142 191.5906,-453.2727 199.6608,-449.5799 207.9199,-447.5158"/>
<polygon fill="#000000" fill-opacity="0.200000" stroke="#000000" stroke-width="2" stroke-opacity="0.200000" points="208.7709,-449.4861 214.2343,-446.2363 207.9368,-445.3698 208.7709,-449.4861"/>
</g>
<!-- src/routers/reviewRoutes.ts -->
<g id="node33" class="node">
<title>src/routers/reviewRoutes.ts</title>
<g id="a_node33"><a xlink:href="src/routers/reviewRoutes.ts" xlink:title="reviewRoutes.ts">
<path fill="#ddfeff" stroke="#000000" d="M161.8151,-500.0153C161.8151,-500.0153 94.2042,-500.0153 94.2042,-500.0153 91.1038,-500.0153 88.0034,-496.9149 88.0034,-493.8146 88.0034,-493.8146 88.0034,-487.6139 88.0034,-487.6139 88.0034,-484.5135 91.1038,-481.4132 94.2042,-481.4132 94.2042,-481.4132 161.8151,-481.4132 161.8151,-481.4132 164.9155,-481.4132 168.0159,-484.5135 168.0159,-487.6139 168.0159,-487.6139 168.0159,-493.8146 168.0159,-493.8146 168.0159,-496.9149 164.9155,-500.0153 161.8151,-500.0153"/>
<text text-anchor="start" x="96.0065" y="-488.0142" font-family="Helvetica,sans-Serif" font-size="9.00" fill="#000000">reviewRoutes.ts</text>
</a>
</g>
</g>
<!-- src/routers/reviewRoutes.ts&#45;&gt;node_modules/express -->
<g id="edge49" class="edge">
<title>src/routers/reviewRoutes.ts-&gt;node_modules/express</title>
<path fill="none" stroke="#000000" stroke-opacity="0.200000" d="M168.1754,-483.1012C171.9709,-480.9468 175.3792,-478.2035 178.0193,-474.7142 193.6494,-454.0569 167.4243,-259.7489 186.0193,-241.7142 218.5095,-210.2029 356.4928,-226.0493 420.6919,-235.4416"/>
<polygon fill="#000000" fill-opacity="0.200000" stroke="#000000" stroke-opacity="0.200000" points="420.425,-237.5249 426.6683,-236.3286 421.0417,-233.3705 420.425,-237.5249"/>
</g>
<!-- src/routers/reviewRoutes.ts&#45;&gt;node_modules/express&#45;validator -->
<g id="edge50" class="edge">
<title>src/routers/reviewRoutes.ts-&gt;node_modules/express-validator</title>
<path fill="none" stroke="#000000" stroke-opacity="0.200000" d="M168.1649,-483.0933C171.9623,-480.9403 175.3739,-478.1995 178.0193,-474.7142 192.4053,-455.7612 168.8827,-277.2221 186.0193,-260.7142 216.2696,-231.5736 337.0448,-249.0089 405.6078,-261.8173"/>
<polygon fill="#000000" fill-opacity="0.200000" stroke="#000000" stroke-opacity="0.200000" points="405.3835,-263.9121 411.6691,-262.963 406.1635,-259.7851 405.3835,-263.9121"/>
</g>
<!-- src/routers/reviewRoutes.ts&#45;&gt;src/controllers/reviewController.ts -->
<g id="edge47" class="edge">
<title>src/routers/reviewRoutes.ts-&gt;src/controllers/reviewController.ts</title>
<path fill="none" stroke="#000000" stroke-width="2" stroke-opacity="0.200000" d="M168.2612,-486.805C175.2158,-486.1296 182.531,-485.4192 189.7353,-484.7195"/>
<polygon fill="#000000" fill-opacity="0.200000" stroke="#000000" stroke-width="2" stroke-opacity="0.200000" points="189.9816,-486.8056 195.7505,-484.1353 189.5756,-482.6252 189.9816,-486.8056"/>
</g>
<!-- src/routers/reviewRoutes.ts&#45;&gt;src/helper.ts -->
<g id="edge48" class="edge">
<title>src/routers/reviewRoutes.ts-&gt;src/helper.ts</title>
<path fill="none" stroke="#000000" stroke-width="2" stroke-opacity="0.200000" d="M167.5071,-481.3788C171.2815,-479.5402 174.8693,-477.3419 178.0193,-474.7142 183.8212,-469.8743 180.0714,-464.3734 186.0193,-459.7142 192.4135,-454.7055 200.3874,-451.4693 208.2708,-449.3841"/>
<polygon fill="#000000" fill-opacity="0.200000" stroke="#000000" stroke-width="2" stroke-opacity="0.200000" points="208.8797,-451.3988 214.2539,-448.0035 207.9353,-447.3064 208.8797,-451.3988"/>
</g>
<!-- src/routers/userRoutes.ts -->
<g id="node34" class="node">
<title>src/routers/userRoutes.ts</title>
<g id="a_node34"><a xlink:href="src/routers/userRoutes.ts" xlink:title="userRoutes.ts">
<path fill="#ddfeff" stroke="#000000" d="M157.3226,-531.0153C157.3226,-531.0153 98.6967,-531.0153 98.6967,-531.0153 95.5963,-531.0153 92.496,-527.9149 92.496,-524.8146 92.496,-524.8146 92.496,-518.6139 92.496,-518.6139 92.496,-515.5135 95.5963,-512.4132 98.6967,-512.4132 98.6967,-512.4132 157.3226,-512.4132 157.3226,-512.4132 160.423,-512.4132 163.5233,-515.5135 163.5233,-518.6139 163.5233,-518.6139 163.5233,-524.8146 163.5233,-524.8146 163.5233,-527.9149 160.423,-531.0153 157.3226,-531.0153"/>
<text text-anchor="start" x="100.2536" y="-519.0142" font-family="Helvetica,sans-Serif" font-size="9.00" fill="#000000">userRoutes.ts</text>
</a>
</g>
</g>
<!-- src/routers/userRoutes.ts&#45;&gt;node_modules/express -->
<g id="edge54" class="edge">
<title>src/routers/userRoutes.ts-&gt;node_modules/express</title>
<path fill="none" stroke="#000000" stroke-opacity="0.200000" d="M163.7699,-516.2906C169.3137,-513.9046 174.3938,-510.5155 178.0193,-505.7142 194.5662,-483.801 166.9432,-278.4649 186.0193,-258.7142 201.9725,-242.1969 352.1514,-240.4445 420.3661,-240.5118"/>
<polygon fill="#000000" fill-opacity="0.200000" stroke="#000000" stroke-opacity="0.200000" points="420.7005,-242.6123 426.7044,-240.5236 420.7084,-238.4123 420.7005,-242.6123"/>
</g>
<!-- src/routers/userRoutes.ts&#45;&gt;node_modules/express&#45;validator -->
<g id="edge55" class="edge">
<title>src/routers/userRoutes.ts-&gt;node_modules/express-validator</title>
<path fill="none" stroke="#000000" stroke-opacity="0.200000" d="M163.7341,-516.2634C169.2815,-513.8802 174.3721,-510.4991 178.0193,-505.7142 191.0303,-488.6447 171.7041,-328.7057 186.0193,-312.7142 240.5313,-251.819 344.4286,-254.7059 405.5422,-262.8414"/>
<polygon fill="#000000" fill-opacity="0.200000" stroke="#000000" stroke-opacity="0.200000" points="405.4514,-264.9489 411.6836,-263.6958 406.0302,-260.789 405.4514,-264.9489"/>
</g>
<!-- src/routers/userRoutes.ts&#45;&gt;src/components/user.ts -->
<g id="edge51" class="edge">
<title>src/routers/userRoutes.ts-&gt;src/components/user.ts</title>
<path fill="none" stroke="#000000" stroke-width="2" stroke-opacity="0.200000" d="M163.6724,-527.2124C169.226,-529.5908 174.3347,-532.958 178.0193,-537.7142 187.5613,-550.0315 174.692,-667.0157 186.0193,-677.7142 194.4816,-685.7067 385.7121,-683.9512 395.5402,-677.7142 402.5907,-673.2399 397.2601,-666.2178 403.5402,-660.7142 408.4959,-656.3712 414.6369,-653.2056 420.905,-650.8986"/>
<polygon fill="#000000" fill-opacity="0.200000" stroke="#000000" stroke-width="2" stroke-opacity="0.200000" points="421.6181,-652.8749 426.6668,-649.0121 420.3112,-648.8833 421.6181,-652.8749"/>
</g>
<!-- src/routers/userRoutes.ts&#45;&gt;src/controllers/userController.ts -->
<g id="edge52" class="edge">
<title>src/routers/userRoutes.ts-&gt;src/controllers/userController.ts</title>
<path fill="none" stroke="#000000" stroke-width="2" stroke-opacity="0.200000" d="M163.5363,-527.9875C173.1897,-529.692 183.7978,-531.5652 193.9904,-533.365"/>
<polygon fill="#000000" fill-opacity="0.200000" stroke="#000000" stroke-width="2" stroke-opacity="0.200000" points="193.6595,-535.439 199.9333,-534.4144 194.3899,-531.303 193.6595,-535.439"/>
</g>
<!-- src/routers/userRoutes.ts&#45;&gt;src/helper.ts -->
<g id="edge53" class="edge">
<title>src/routers/userRoutes.ts-&gt;src/helper.ts</title>
<path fill="none" stroke="#000000" stroke-width="2" stroke-opacity="0.200000" d="M163.7383,-515.6373C169.1453,-513.3125 174.187,-510.1131 178.0193,-505.7142 191.6504,-490.0678 171.9136,-474.9342 186.0193,-459.7142 191.7549,-453.5255 199.7994,-449.9063 207.9785,-447.8314"/>
<polygon fill="#000000" fill-opacity="0.200000" stroke="#000000" stroke-width="2" stroke-opacity="0.200000" points="208.7786,-449.8098 214.2234,-446.5288 207.921,-445.6983 208.7786,-449.8098"/>
</g>
<!-- src/routes.ts -->
<g id="node35" class="node">
<title>src/routes.ts</title>
<g id="a_node35"><a xlink:href="src/routes.ts" xlink:title="routes.ts">
<path fill="#ddfeff" stroke="#000000" d="M63.7993,-484.0153C63.7993,-484.0153 22.2007,-484.0153 22.2007,-484.0153 19.1004,-484.0153 16,-480.9149 16,-477.8146 16,-477.8146 16,-471.6139 16,-471.6139 16,-468.5135 19.1004,-465.4132 22.2007,-465.4132 22.2007,-465.4132 63.7993,-465.4132 63.7993,-465.4132 66.8996,-465.4132 70,-468.5135 70,-471.6139 70,-471.6139 70,-477.8146 70,-477.8146 70,-480.9149 66.8996,-484.0153 63.7993,-484.0153"/>
<text text-anchor="start" x="25.7457" y="-472.0142" font-family="Helvetica,sans-Serif" font-size="9.00" fill="#000000">routes.ts</text>
</a>
</g>
</g>
<!-- src/routes.ts&#45;&gt;node_modules/express -->
<g id="edge62" class="edge">
<title>src/routes.ts-&gt;node_modules/express</title>
<path fill="none" stroke="#000000" stroke-opacity="0.200000" d="M43.3948,-465.2759C45.9174,-418.5838 63.8987,-211.2873 186.0193,-129.7142 263.4535,-77.9904 326.9871,-66.6914 395.5402,-129.7142 411.1367,-144.0525 390.3297,-208.1516 403.5402,-224.7142 407.8676,-230.1397 414.0379,-233.755 420.5803,-236.1565"/>
<polygon fill="#000000" fill-opacity="0.200000" stroke="#000000" stroke-opacity="0.200000" points="420.2984,-238.2676 426.6512,-238.0378 421.5417,-234.2558 420.2984,-238.2676"/>
</g>
<!-- src/routes.ts&#45;&gt;node_modules/morgan -->
<g id="edge63" class="edge">
<title>src/routes.ts-&gt;node_modules/morgan</title>
<path fill="none" stroke="#000000" stroke-opacity="0.200000" d="M43.0941,-465.2087C43.7081,-416.3792 48.1286,-193.6814 78,-132.7142 107.1867,-73.1444 124.4356,-54.3693 186.0193,-29.7142 272.469,4.8959 313.3942,14.1429 395.5402,-29.7142 424.0225,-44.9207 441.0243,-80.9092 448.765,-101.5198"/>
<polygon fill="#000000" fill-opacity="0.200000" stroke="#000000" stroke-opacity="0.200000" points="446.8665,-102.4465 450.8724,-107.3824 450.8189,-101.0257 446.8665,-102.4465"/>
</g>
<!-- src/routes.ts&#45;&gt;src/helper.ts -->
<g id="edge56" class="edge">
<title>src/routes.ts-&gt;src/helper.ts</title>
<path fill="none" stroke="#000000" stroke-width="2" stroke-opacity="0.200000" d="M44.3647,-484.1226C48.2625,-509.5375 60.3146,-578.545 78,-591.7142 113.6539,-618.2636 145.6495,-622.1816 178.0193,-591.7142 199.4185,-571.5727 167.2773,-482.3492 186.0193,-459.7142 191.4509,-453.1544 199.4752,-449.4229 207.7352,-447.3594"/>
<polygon fill="#000000" fill-opacity="0.200000" stroke="#000000" stroke-width="2" stroke-opacity="0.200000" points="208.5905,-449.3295 214.0585,-446.0874 207.7622,-445.212 208.5905,-449.3295"/>
</g>
<!-- src/routes.ts&#45;&gt;src/routers/auth.ts -->
<g id="edge57" class="edge">
<title>src/routes.ts-&gt;src/routers/auth.ts</title>
<path fill="none" stroke="#000000" stroke-width="2" stroke-opacity="0.200000" d="M52.0201,-465.1813C58.6664,-458.6356 68.2168,-450.1755 78,-444.7142 83.313,-441.7483 89.2554,-439.2414 95.1376,-437.1556"/>
<polygon fill="#000000" fill-opacity="0.200000" stroke="#000000" stroke-width="2" stroke-opacity="0.200000" points="95.9471,-439.0994 100.9743,-435.2088 94.6181,-435.1152 95.9471,-439.0994"/>
</g>
<!-- src/routes.ts&#45;&gt;src/routers/cartRoutes.ts -->
<g id="edge58" class="edge">
<title>src/routes.ts-&gt;src/routers/cartRoutes.ts</title>
<path fill="none" stroke="#000000" stroke-width="2" stroke-opacity="0.200000" d="M70.3655,-469.8855C75.7122,-468.9421 81.4265,-467.9338 87.1027,-466.9323"/>
<polygon fill="#000000" fill-opacity="0.200000" stroke="#000000" stroke-width="2" stroke-opacity="0.200000" points="87.6842,-468.9622 93.2279,-465.8515 86.9543,-464.8261 87.6842,-468.9622"/>
</g>
<!-- src/routes.ts&#45;&gt;src/routers/productRoutes.ts -->
<g id="edge59" class="edge">
<title>src/routes.ts-&gt;src/routers/productRoutes.ts</title>
<path fill="none" stroke="#000000" stroke-width="2" stroke-opacity="0.200000" d="M45.8604,-484.1489C50.4517,-497.7223 60.7455,-522.6678 78,-536.7142 79.5906,-538.0091 81.288,-539.1999 83.061,-540.2951"/>
<polygon fill="#000000" fill-opacity="0.200000" stroke="#000000" stroke-width="2" stroke-opacity="0.200000" points="82.3027,-542.2734 88.5759,-543.3015 84.313,-538.5858 82.3027,-542.2734"/>
</g>
<!-- src/routes.ts&#45;&gt;src/routers/reviewRoutes.ts -->
<g id="edge60" class="edge">
<title>src/routes.ts-&gt;src/routers/reviewRoutes.ts</title>
<path fill="none" stroke="#000000" stroke-width="2" stroke-opacity="0.200000" d="M70.3655,-479.8648C74.0604,-480.5602 77.9309,-481.2887 81.843,-482.025"/>
<polygon fill="#000000" fill-opacity="0.200000" stroke="#000000" stroke-width="2" stroke-opacity="0.200000" points="81.7208,-484.1388 88.0057,-483.1849 82.4977,-480.0113 81.7208,-484.1388"/>
</g>
<!-- src/routes.ts&#45;&gt;src/routers/userRoutes.ts -->
<g id="edge61" class="edge">
<title>src/routes.ts-&gt;src/routers/userRoutes.ts</title>
<path fill="none" stroke="#000000" stroke-width="2" stroke-opacity="0.200000" d="M51.6803,-484.2906C58.3086,-491.0999 67.9816,-500.0145 78,-505.7142 80.8227,-507.3201 83.8282,-508.7889 86.911,-510.1276"/>
<polygon fill="#000000" fill-opacity="0.200000" stroke="#000000" stroke-width="2" stroke-opacity="0.200000" points="86.1712,-512.0936 92.5208,-512.3984 87.7471,-508.2005 86.1712,-512.0936"/>
</g>
</g>
</svg>